# xmcd CD database file
#
# Track frame offsets:
#	150
#	15465
#	26203
#	39006
#	56162
#	67952
#	77975
#	98393
#	110024
#	127370
#	143388
#	160662
#	173418
#	186113
#
# Disc length: 2650 seconds
#
# Revision: 1
# Processed by: cddbd v1.4PL0 Copyright (c) Steve Scherf et al.
# Submitted via: CDex 1.50
#
DISCID=ab0a580e
DTITLE=Albert King - King Of The Blues Guitar
DYEAR=1990
DGENRE=Blues
TTITLE0=Landromat Blues
TTITLE1=Overall Junction
TTITLE2=Oh, Pretty Woman
TTITLE3=Funk - Shun
TTITLE4=Crosscut Saw
TTITLE5=Down Don't Bother Me
TTITLE6=Born Under A Bad Sign
TTITLE7=Kansas City
TTITLE8=The Very Thought Of You
TTITLE9=I Almost Lost My Mind
TTITLE10=As The Years Go Passing
TTITLE11=Cold Feet
TTITLE12=I Love Lucy
TTITLE13=You're Gonna Need Me
EXTD=YEAR: 1990
EXTT0=
EXTT1=
EXTT2=
EXTT3=
EXTT4=
EXTT5=
EXTT6=
EXTT7=
EXTT8=
EXTT9=
EXTT10=
EXTT11=
EXTT12=
EXTT13=
PLAYORDER=
